<?xml version="1.0" standalone="no"?><!DOCTYPE svg PUBLIC "-//W3C//DTD SVG 1.1//EN" "http://www.w3.org/Graphics/SVG/1.1/DTD/svg11.dtd"><svg t="1577698465052" class="icon" viewBox="0 0 1024 1024" version="1.1" xmlns="http://www.w3.org/2000/svg" p-id="3389" xmlns:xlink="http://www.w3.org/1999/xlink" width="30" height="30"><defs><style type="text/css"></style></defs><path d="M779.636364 954.181818h-535.272728A174.778182 174.778182 0 0 1 69.818182 779.636364v-535.272728A174.778182 174.778182 0 0 1 244.363636 69.818182H512a34.909091 34.909091 0 0 1 0 69.818182H244.363636A104.96 104.96 0 0 0 139.636364 244.363636v535.272728a104.96 104.96 0 0 0 104.727272 104.727272h535.272728a104.96 104.96 0 0 0 104.727272-104.727272V512a34.909091 34.909091 0 0 1 69.818182 0v267.636364a174.778182 174.778182 0 0 1-174.545454 174.545454z" p-id="3390"></path><path d="M808.96 149.178182l32.814545 33.047273 33.047273 32.814545-160.581818 160.581818-192 191.767273-72.378182 6.749091 6.749091-72.378182 191.767273-192 160.581818-160.581818m0-79.36a46.545455 46.545455 0 0 0-33.047273 13.730909l-176.872727 176.872727L395.636364 465.454545a23.272727 23.272727 0 0 0-6.749091 14.196364l-13.032728 144.989091a23.272727 23.272727 0 0 0 23.272728 25.367273h2.094545l144.989091-13.032728a23.272727 23.272727 0 0 0 14.196364-6.74909l203.869091-203.869091 176.872727-176.872728a46.545455 46.545455 0 0 0 0-65.861818l-50.036364-50.734545-49.338182-49.338182A46.545455 46.545455 0 0 0 808.96 69.818182z" p-id="3391"></path></svg>