<?xml version="1.0" standalone="no"?><!DOCTYPE svg PUBLIC "-//W3C//DTD SVG 1.1//EN" "http://www.w3.org/Graphics/SVG/1.1/DTD/svg11.dtd"><svg t="1591929060749" class="icon" viewBox="0 0 1024 1024" version="1.1" xmlns="http://www.w3.org/2000/svg" p-id="2654" width="22" height="22" xmlns:xlink="http://www.w3.org/1999/xlink"><defs><style type="text/css"></style></defs><path d="M512 557.7c23.6 0 42.7-19.1 42.7-42.7V45.7C554.7 22.1 535.6 3 512 3s-42.7 19.1-42.7 42.7V515c0 23.6 19.1 42.7 42.7 42.7z" p-id="2655" fill="#ffffff"></path><path d="M742.2 142.6c-20.6-11.6-46.6-4.3-58.1 16.2-11.6 20.5-4.3 46.5 16.2 58.1C821 285 896 413.2 896 551.6c0 211.8-172.2 384-384 384-211.7 0-384-172.2-384-384 0-138.4 75-266.6 195.6-334.7 20.5-11.6 27.8-37.6 16.2-58.1-11.6-20.5-37.6-27.7-58.1-16.2-147.4 83.2-239 239.9-239 409C42.7 810.4 253.2 1021 512 1021s469.3-210.5 469.3-469.3c0-169.2-91.6-325.9-239.1-409.1z" p-id="2656" fill="#ffffff"></path></svg>