<svg t="1698940780602" class="icon" viewBox="0 0 1024 1024" version="1.1" xmlns="http://www.w3.org/2000/svg" p-id="1749" width="48" height="48"><path d="M142.963377 916.855085a20.029455 20.029455 0 0 1-18.946809-26.540354c0.121184-0.351535 12.185528-35.55406 22.713536-74.184799 16.579209-60.836502 16.135534-81.010177 15.33031-86.567627C77.523876 661.404671 31.027177 572.245103 31.027177 478.132003c0-50.249405 13.079888-98.921411 38.874108-144.663962 24.630451-43.67641 59.754858-82.799898 104.39874-116.284812 90.669864-68.004401 210.908688-105.457349 338.569798-105.457349 127.660108 0 247.899934 37.452947 338.569798 105.457349 44.643881 33.484914 79.768288 72.608402 104.398739 116.284812 25.795222 45.742552 38.874108 94.414558 38.874108 144.663962 0 50.250406-13.079888 98.922412-38.874108 144.664965-24.630451 43.67641-59.755859 82.799898-104.398739 116.284812-90.669864 68.004401-210.90969 105.456347-338.569798 105.456347-56.089284 0-111.033828-7.240008-163.308312-21.517718a8.923568 8.923568 0 0 0-1.100674-0.053081c-7.454334 0-33.226521 4.356624-111.355316 44.709982-44.402514 22.933871-83.527003 46.13615-83.917598 46.368504a19.98038 19.98038 0 0 1-10.224546 2.809271z m369.907447-765.068292c-243.599395 0-441.782734 146.397599-441.782734 326.34521 0 82.655679 42.139073 161.593704 118.655416 222.272968 14.380866 11.403339 13.77194 33.543002 11.280152 53.695645-2.05212 16.594232-6.538943 38.109946-13.334275 63.949235-3.300018 12.548079-6.808352 24.855793-10.139417 36.043805 12.331751-6.798337 26.408154-14.382869 41.173605-22.009465 95.21177-49.177775 121.199284-49.177775 129.739269-49.177776 4.229431 0 7.992152 0.46671 11.504493 1.42717 48.881324 13.366324 100.324544 20.143629 152.903491 20.143629 243.599395 0 441.782734-146.397599 441.782734-326.345211-0.001002-179.947612-198.183339-326.34521-441.782734-326.34521z" p-id="1750"></path><path d="M278.629659 503.051894h-30.045685c-11.062821 0-20.030456-8.967635-20.030457-20.030456s8.967635-20.030456 20.030457-20.030457h30.045685c11.062821 0 20.030456 8.967635 20.030456 20.030457s-8.967635 20.030456-20.030456 20.030456zM629.991908 503.051894h-58.560041c-11.062821 0-20.030456-8.967635-20.030457-20.030456s8.967635-20.030456 20.030457-20.030457h58.560041c11.062821 0 20.030456 8.967635 20.030456 20.030457s-8.967635 20.030456-20.030456 20.030456z m-175.681125 0h-58.560041c-11.062821 0-20.030456-8.967635-20.030456-20.030456s8.967635-20.030456 20.030456-20.030457h58.560041c11.062821 0 20.030456 8.967635 20.030457 20.030457s-8.967635 20.030456-20.030457 20.030456zM777.157674 503.051894h-30.045684c-11.062821 0-20.030456-8.967635-20.030457-20.030456s8.967635-20.030456 20.030457-20.030457h30.045684c11.062821 0 20.030456 8.967635 20.030457 20.030457s-8.967635 20.030456-20.030457 20.030456z" p-id="1751"></path></svg>